<?xml version="1.0" encoding="UTF-8"?>
<svg width="700pt" fill ="#535353" height="700pt" version="1.1" viewBox="0 0 700 700" xmlns="http://www.w3.org/2000/svg">
 <path d="m350 392c36.73 0 67.953 23.574 79.367 56.418l1.3672-0.23047 3.2656-0.1875h168c15.465 0 28 12.535 28 28 0 14.359-10.809 26.195-24.734 27.812l-3.2656 0.1875h-168c-1.582 0-3.1367-0.13281-4.6484-0.38281-11.398 32.809-42.621 56.383-79.352 56.383s-67.953-23.574-79.367-56.418l-1.3672 0.23047-3.2656 0.1875h-168c-15.465 0-28-12.535-28-28 0-14.359 10.809-26.195 24.734-27.812l3.2656-0.1875h168c1.582 0 3.1367 0.13281 4.6484 0.38281 11.398-32.809 42.621-56.383 79.352-56.383zm0 56c-15.465 0-28 12.535-28 28s12.535 28 28 28 28-12.535 28-28-12.535-28-28-28zm-196-252c36.73 0 67.953 23.574 79.367 56.418l1.3672-0.23047 3.2656-0.1875h364c15.465 0 28 12.535 28 28 0 14.359-10.809 26.195-24.734 27.812l-3.2656 0.1875h-364c-1.582 0-3.1367-0.13281-4.6484-0.38281-11.398 32.809-42.621 56.383-79.352 56.383-46.391 0-84-37.609-84-84s37.609-84 84-84zm0 56c-15.465 0-28 12.535-28 28s12.535 28 28 28 28-12.535 28-28-12.535-28-28-28zm308-252c36.73 0 67.953 23.574 79.367 56.418l1.3672-0.23047 3.2656-0.1875h56c15.465 0 28 12.535 28 28 0 14.359-10.809 26.195-24.734 27.812l-3.2656 0.1875h-56c-1.582 0-3.1367-0.13281-4.6484-0.38281-11.398 32.809-42.621 56.383-79.352 56.383s-67.953-23.574-79.367-56.418l-1.3672 0.23047-3.2656 0.1875h-280c-15.465 0-28-12.535-28-28 0-14.359 10.809-26.195 24.734-27.812l3.2656-0.1875h280c1.582 0 3.1367 0.13281 4.6484 0.38281 11.398-32.809 42.621-56.383 79.352-56.383zm0 56c-15.465 0-28 12.535-28 28s12.535 28 28 28 28-12.535 28-28-12.535-28-28-28z"/>
</svg>
