<?xml version="1.0" encoding="UTF-8"?>
<svg width="700pt" fill ="#535353" height="700pt" version="1.1" viewBox="0 0 700 700" xmlns="http://www.w3.org/2000/svg">
 <g>
  <path d="m358.71 553.27c0.55078-0.23828 1.0938-0.5 1.6289-0.78516l56.137-29.941c60.988-32.527 134.18-32.527 195.16 0 40.02 21.344 88.355-7.6562 88.355-53.016v-347.57c0-24.234-13.355-46.5-34.742-57.902l-17.371-9.2656c-83.641-44.609-184.01-44.609-267.65 0l-30.238 16.125-30.238-16.125c-83.641-44.609-184.01-44.609-267.65 0l-17.371 9.2656c-21.383 11.402-34.742 33.668-34.742 57.902v347.57c0 45.359 48.336 74.359 88.355 53.016 60.988-32.527 134.18-32.527 195.16 0l56.137 29.941m32.219-443.65v387.91l24.016-12.805c73.859-39.391 162.48-39.391 236.34 0 10.879 5.8008 24.016-2.082 24.016-14.414v-347.57c0-8.0781-4.4531-15.5-11.582-19.301l-17.371-9.2656c-70.77-37.746-155.7-37.746-226.47 0zm-43.75 0-28.953-15.441c-70.77-37.746-155.7-37.746-226.47 0l-17.371 9.2656c-7.1289 3.8008-11.582 11.223-11.582 19.301v347.57c0 12.332 13.137 20.215 24.016 14.414 73.859-39.391 162.48-39.391 236.34 0l24.016 12.805z" fill-rule="evenodd"/>
  <path d="m339.71 552.5c5.9297 3.1641 12.934 3.4023 19.008 0.76172z"/>
 </g>
</svg>
